<svg width="202" height="37" viewBox="0 0 202 37" fill="none" xmlns="http://www.w3.org/2000/svg">
<mask id="mask0_2_37" style="mask-type:luminance" maskUnits="userSpaceOnUse" x="0" y="7" width="25" height="29">
<path d="M25 7H0V36H25V7Z" fill="white"/>
</mask>
<g mask="url(#mask0_2_37)">
<path d="M24.0657 35.4515C21.7266 35.4515 19.6353 35.4515 17.5596 35.4515C17.1413 35.4515 16.8935 35.2192 16.6301 34.9713C13.3616 31.9196 10.093 28.8679 6.82446 25.8163C6.5921 25.5994 6.34424 25.3825 6.0809 25.1502C5.77109 25.4135 5.9105 25.7233 5.9105 26.0022C5.9105 28.8215 5.87952 31.6408 5.9105 34.4601C5.9105 35.2037 5.77109 35.529 4.95007 35.467C3.98965 35.3896 3.02922 35.4051 2.06879 35.467C1.26327 35.5135 0.999927 35.2656 0.999927 34.4291C1.03091 28.8989 1.01542 23.3532 1.01542 17.823C1.01542 14.6784 1.0464 11.5183 0.984437 8.37365C0.968946 7.42872 1.27876 7.18086 2.16174 7.24283C3.09118 7.30479 4.02063 7.30479 4.95007 7.24283C5.66265 7.19635 5.92599 7.39773 5.9105 8.17227C5.86403 10.7283 5.89501 13.2687 5.89501 15.8247C5.89501 16.0726 5.89501 16.3359 5.89501 16.7077C6.66955 16.2894 7.14977 15.7008 7.69194 15.1896C10.3409 12.7266 12.9588 10.248 15.5922 7.785C15.8556 7.53715 16.0879 7.25832 16.5062 7.25832C18.582 7.25832 20.6732 7.25832 22.8574 7.25832C22.687 7.75402 22.3462 7.9554 22.0829 8.20325C17.8539 12.1689 13.6404 16.1345 9.34945 20.0537C8.57492 20.7663 8.72982 21.0916 9.39593 21.6957C14.1051 26.0641 18.7988 30.4635 23.4925 34.8474C23.632 34.9713 23.7559 35.1262 24.0657 35.4515Z" fill="#AD976E"/>
</g>
<mask id="mask1_2_37" style="mask-type:luminance" maskUnits="userSpaceOnUse" x="43" y="8" width="28" height="28">
<path d="M71 8H43V36H71V8Z" fill="white"/>
</mask>
<g mask="url(#mask1_2_37)">
<path d="M56.9769 15.0246C54.7648 20.2595 52.6394 25.255 50.5141 30.2654C49.8635 31.791 49.1984 33.3016 48.5767 34.8272C48.3454 35.3955 48.0417 35.5899 47.4634 35.56C46.4514 35.5152 45.4248 35.56 44.3983 35.56C43.6465 35.56 43.42 35.2111 43.7188 34.5131C45.4248 30.5795 47.1309 26.6459 48.8369 22.7124C50.8032 18.1655 52.7984 13.6187 54.7358 9.0719C54.9816 8.48858 55.2997 8.35397 55.8924 8.23431C58.1768 7.81553 59.2467 8.81762 60.1431 11.0013C63.3962 18.9133 66.8805 26.7057 70.2783 34.543C70.5674 35.2111 70.3457 35.545 69.6132 35.545C68.5867 35.545 67.5746 35.5002 66.5481 35.56C65.9119 35.5899 65.6227 35.3507 65.3769 34.7673C62.789 28.6501 60.172 22.5478 57.5696 16.4455C57.3961 16.0417 57.2226 15.6528 56.9479 15.0246H56.9769Z" fill="#AD976E"/>
</g>
<path d="M99.2513 12.9047C96.1996 12.9047 93.1479 12.8896 90.1117 12.9197C89.3682 12.9197 89.1203 12.724 89.1668 11.986C89.2287 10.992 89.1978 9.98297 89.1668 8.98892C89.1668 8.47687 89.2752 8.2359 89.8794 8.2359C96.2151 8.2359 102.535 8.2359 108.871 8.2359C109.429 8.2359 109.63 8.41663 109.615 8.9588C109.584 9.98297 109.568 11.0221 109.615 12.0462C109.646 12.7541 109.367 12.9047 108.685 12.9047C105.54 12.8746 102.396 12.9047 99.2358 12.9047H99.2513Z" fill="#AD976E"/>
<mask id="mask2_2_37" style="mask-type:luminance" maskUnits="userSpaceOnUse" x="89" y="19" width="22" height="17">
<path d="M111 19.6667H89V36H111V19.6667Z" fill="white"/>
</mask>
<g mask="url(#mask2_2_37)">
<path d="M99.9098 35.6433C96.7652 35.6433 93.6051 35.6292 90.4604 35.6433C89.7324 35.6433 89.5 35.4746 89.5 34.7859C89.531 30.3299 89.531 25.8881 89.5 21.4322C89.5 20.7575 89.6859 20.5607 90.4449 20.5748C96.3779 20.6029 102.311 20.6029 108.244 20.5748C109.065 20.5748 109.266 20.8278 109.22 21.5025C109.158 22.2756 109.127 23.0768 109.22 23.8499C109.328 24.7776 108.91 24.9182 107.996 24.9042C103.813 24.862 99.6465 24.9042 95.4639 24.862C94.5345 24.862 94.2867 25.1009 94.3331 25.9162C94.4106 27.364 94.3951 28.8118 94.3331 30.2456C94.3021 31.0187 94.519 31.2717 95.4175 31.2577C100.018 31.2155 104.634 31.2577 109.235 31.2155C110.103 31.2155 110.428 31.3982 110.351 32.2135C110.273 33.085 110.289 33.9565 110.351 34.828C110.382 35.4605 110.134 35.6573 109.452 35.6433C106.277 35.6151 103.085 35.6433 99.9098 35.6433Z" fill="#AD976E"/>
</g>
<mask id="mask3_2_37" style="mask-type:luminance" maskUnits="userSpaceOnUse" x="129" y="7" width="26" height="29">
<path d="M155 7H129V36H155V7Z" fill="white"/>
</mask>
<g mask="url(#mask3_2_37)">
<path d="M145.586 25.5375C147.151 27.226 148.653 28.8525 150.156 30.479C151.627 32.0901 153.099 33.7011 154.772 35.5135C152.99 35.5135 151.442 35.4206 149.923 35.5445C148.669 35.6375 147.848 35.2192 147.027 34.2743C144.718 31.6254 142.317 29.0694 139.963 26.4669C139.606 26.0797 139.25 25.8473 138.693 25.8783C137.67 25.9248 136.632 25.9402 135.61 25.8783C134.82 25.8318 134.68 26.1416 134.68 26.8542C134.711 29.4102 134.68 31.9507 134.711 34.5066C134.711 35.2502 134.557 35.591 133.736 35.529C132.682 35.4671 131.613 35.4826 130.56 35.529C129.987 35.5445 129.754 35.3896 129.754 34.7545C129.77 25.8318 129.754 16.9246 129.754 8.00193C129.754 7.56819 129.754 7.22739 130.359 7.24288C134.928 7.32034 139.514 7.01052 144.068 7.39779C148.049 7.73859 151.256 10.8522 151.999 14.8024C152.758 18.8765 151.085 22.7491 147.739 24.5926C147.104 24.9333 146.422 25.1812 145.601 25.553L145.586 25.5375ZM134.68 16.4599C134.68 17.7921 134.68 19.1088 134.68 20.441C134.68 20.8593 134.727 21.1381 135.254 21.1226C137.903 21.0916 140.551 21.1691 143.2 21.0607C145.137 20.9832 146.407 19.8369 146.872 18.1174C147.786 14.7249 145.803 12.045 142.271 11.9831C140.025 11.9366 137.763 11.9831 135.517 11.9676C134.882 11.9676 134.634 12.1225 134.665 12.8041C134.711 14.0278 134.665 15.2516 134.665 16.4754L134.68 16.4599Z" fill="#AD976E"/>
</g>
<mask id="mask4_2_37" style="mask-type:luminance" maskUnits="userSpaceOnUse" x="185" y="0" width="6" height="6">
<path d="M191 0H185V6H191V0Z" fill="white"/>
</mask>
<g mask="url(#mask4_2_37)">
<path d="M190.915 1.00017C190.002 2.4563 189.227 3.71105 188.437 4.95031C188.22 5.27562 186.005 5.52347 185.742 5.26013C185.571 5.08973 185.664 4.90384 185.726 4.71795C186.098 3.61811 186.47 2.53375 186.826 1.43391C186.934 1.09311 187.136 0.969186 187.477 0.984676C188.561 0.984676 189.63 0.984676 190.931 0.984676L190.915 1.00017Z" fill="#AD976E"/>
</g>
<mask id="mask5_2_37" style="mask-type:luminance" maskUnits="userSpaceOnUse" x="173" y="6" width="29" height="31">
<path d="M202 6H173V37H202V6Z" fill="white"/>
</mask>
<g mask="url(#mask5_2_37)">
<path d="M173.497 21.2774C173.559 17.0329 174.767 13.2531 177.958 10.2944C180.886 7.59902 184.465 6.74703 188.337 6.85546C194.89 7.05684 199.723 10.8211 201.427 17.0329C203.193 23.4771 200.807 30.6338 195.587 33.7939C190.785 36.7062 185.657 36.8301 180.7 34.2896C175.867 31.8111 173.853 27.4272 173.497 22.1604C173.482 21.866 173.497 21.5717 173.497 21.2619V21.2774ZM197.136 21.4013C197.167 17.0794 194.812 11.9674 188.306 11.6111C183.922 11.3788 180.158 13.3616 178.81 17.9314C177.989 20.7197 178.16 23.4461 179.383 26.064C180.514 28.4651 182.342 30.1226 184.929 30.8197C191.482 32.6011 197.136 28.2172 197.136 21.3858V21.4013Z" fill="#AD976E"/>
</g>
</svg>
