<svg width="44" height="44" viewBox="0 0 44 44" fill="none" xmlns="http://www.w3.org/2000/svg">
<rect width="44" height="44" rx="6" fill="#FFC9DC"/>
<path d="M11.6 19.9996H14V27.9998H12.4C12.1878 27.9998 11.9843 28.1052 11.8343 28.2927C11.6843 28.4803 11.6 28.7346 11.6 28.9999C11.6 29.2651 11.6843 29.5195 11.8343 29.707C11.9843 29.8945 12.1878 29.9999 12.4 29.9999H31.6C31.8122 29.9999 32.0157 29.8945 32.1657 29.707C32.3157 29.5195 32.4 29.2651 32.4 28.9999C32.4 28.7346 32.3157 28.4803 32.1657 28.2927C32.0157 28.1052 31.8122 27.9998 31.6 27.9998H30V19.9996H32.4C32.5741 19.9994 32.7433 19.9282 32.8821 19.7969C33.0209 19.6656 33.1216 19.4812 33.169 19.2719C33.2164 19.0625 33.2078 18.8395 33.1447 18.6368C33.0815 18.434 32.9672 18.2625 32.819 18.1483L22.419 10.1481C22.293 10.0513 22.1479 10 22 10C21.8521 10 21.707 10.0513 21.581 10.1481L11.181 18.1483C11.0328 18.2625 10.9185 18.434 10.8553 18.6368C10.7922 18.8395 10.7836 19.0625 10.831 19.2719C10.8784 19.4812 10.9791 19.6656 11.1179 19.7969C11.2567 19.9282 11.4259 19.9994 11.6 19.9996ZM15.6 19.9996H18.8V27.9998H15.6V19.9996ZM23.6 19.9996V27.9998H20.4V19.9996H23.6ZM28.4 27.9998H25.2V19.9996H28.4V27.9998ZM22 12.1732L29.574 17.9996H14.426L22 12.1732ZM34 33C34 33.2652 33.9157 33.5196 33.7657 33.7071C33.6157 33.8946 33.4122 34 33.2 34H10.8C10.5878 34 10.3843 33.8946 10.2343 33.7071C10.0843 33.5196 10 33.2652 10 33C10 32.7347 10.0843 32.4804 10.2343 32.2928C10.3843 32.1053 10.5878 31.9999 10.8 31.9999H33.2C33.4122 31.9999 33.6157 32.1053 33.7657 32.2928C33.9157 32.4804 34 32.7347 34 33Z" fill="#EC5D8E"/>
</svg>
