<svg width="157" height="82" viewBox="0 0 157 82" fill="none" xmlns="http://www.w3.org/2000/svg">
<mask id="path-1-outside-1_1007_1932" maskUnits="userSpaceOnUse" x="0" y="0.102539" width="157" height="82" fill="black">
<rect fill="white" y="0.102539" width="157" height="82"/>
<path d="M100.891 50.7656C100.983 50.8783 101.099 50.9695 101.23 51.0327C101.362 51.0959 101.505 51.1297 101.651 51.1316C101.797 51.1335 101.941 51.1035 102.074 51.0437C102.207 50.984 102.325 50.8958 102.421 50.7856L110.251 41.6356C110.404 41.4535 110.488 41.2234 110.488 40.9856C110.488 40.7478 110.404 40.5176 110.251 40.3356L102.601 31.2956C102.507 31.1852 102.39 31.0962 102.259 31.0345C102.128 30.9728 101.986 30.9399 101.842 30.938C101.698 30.9361 101.555 30.9653 101.424 31.0235C101.292 31.0818 101.175 31.1677 101.081 31.2756L94.7907 38.4356C94.6945 38.5426 94.5765 38.6279 94.4446 38.6856C94.3128 38.7434 94.1701 38.7723 94.0261 38.7704C93.8822 38.7685 93.7403 38.7359 93.61 38.6747C93.4797 38.6135 93.364 38.5251 93.2707 38.4156L88.3107 32.5856C88.1587 32.409 88.0744 32.1838 88.0726 31.9497C88.0707 31.7156 88.1515 31.4875 88.3007 31.3056C91.5273 27.3589 94.7973 23.4956 98.1107 19.7156C101.921 15.3656 103.551 17.5256 106.401 20.8456C111.167 26.4256 115.927 32.0189 120.681 37.6256C122.447 39.7056 122.324 41.9689 120.311 44.4156C112.064 54.4222 106.867 60.6356 104.721 63.0556C102.767 65.2556 100.781 65.1756 98.7607 62.8156C86.1073 48.0689 73.5073 33.2789 60.9607 18.4456C57.9907 14.9456 54.5207 13.5656 51.2007 17.4256C47.7873 21.3856 44.404 25.3722 41.0507 29.3856C40.9575 29.4977 40.841 29.5881 40.7093 29.6504C40.5775 29.7128 40.4338 29.7456 40.288 29.7465C40.1423 29.7475 39.9981 29.7166 39.8655 29.6559C39.733 29.5953 39.6153 29.5064 39.5207 29.3956L34.5307 23.5056C34.379 23.3298 34.2938 23.1063 34.2902 22.8742C34.2865 22.642 34.3646 22.416 34.5107 22.2356C38.2907 17.5456 46.4107 5.98556 51.7507 3.99556C59.7607 0.995558 63.0607 6.11556 68.4807 12.4056C79.4007 25.0656 90.204 37.8522 100.891 50.7656Z"/>
<path d="M103.28 67.1256C103.439 67.1412 103.598 67.1195 103.746 67.0621C103.894 67.0048 104.025 66.9134 104.13 66.7956C109.617 60.5023 115.04 54.1589 120.4 47.7656C123.71 43.8056 125.19 39.8056 121.65 35.6556C116.897 30.0756 112.15 24.4889 107.41 18.8956C103.37 14.1256 100.48 13.7456 96.4204 18.5656C93.3671 22.1923 90.2971 25.8089 87.2104 29.4156C87.1165 29.5254 87 29.6135 86.8688 29.6739C86.7376 29.7344 86.5949 29.7657 86.4504 29.7657C86.306 29.7657 86.1632 29.7344 86.032 29.6739C85.9008 29.6135 85.7843 29.5254 85.6904 29.4156L80.5804 23.4756C80.4241 23.2956 80.3372 23.0658 80.3353 22.8274C80.3335 22.5891 80.4169 22.3579 80.5704 22.1756C84.3838 17.6689 88.2071 13.1823 92.0404 8.71558C97.3704 2.50558 104.66 0.485584 110.68 7.65558C116.554 14.6556 122.47 21.6256 128.43 28.5656C138.82 40.6556 133.08 47.8256 124.39 58.0856C120.724 62.4056 117.047 66.7289 113.36 71.0556C105.07 80.7756 99.3604 81.9056 90.9104 71.9256C79.4304 58.3722 67.9404 44.8223 56.4404 31.2756C56.3456 31.1656 56.2282 31.0773 56.0962 31.0168C55.9641 30.9564 55.8206 30.925 55.6754 30.925C55.5302 30.925 55.3867 30.9564 55.2547 31.0168C55.1227 31.0773 55.0052 31.1656 54.9104 31.2756L48.7504 38.4656C48.6565 38.5754 48.54 38.6635 48.4088 38.7239C48.2776 38.7844 48.1349 38.8157 47.9904 38.8157C47.846 38.8157 47.7032 38.7844 47.572 38.7239C47.4408 38.6635 47.3243 38.5754 47.2304 38.4656L42.1904 32.5756C42.0341 32.3956 41.9472 32.1658 41.9453 31.9274C41.9435 31.6891 42.0269 31.4579 42.1804 31.2756C45.7071 27.1223 49.2371 22.9856 52.7704 18.8656C54.7904 16.5056 56.8604 16.5823 58.9804 19.0956C71.0871 33.4623 83.2371 47.7922 95.4304 62.0856C97.8604 64.9356 99.0704 66.7256 103.28 67.1256Z"/>
<path d="M26.7399 32.5356C26.5868 32.3536 26.5029 32.1234 26.5029 31.8856C26.5029 31.6478 26.5868 31.4176 26.7399 31.2356L31.8099 25.2256C31.9038 25.1141 32.0209 25.0245 32.153 24.963C32.2851 24.9015 32.4291 24.8696 32.5749 24.8696C32.7206 24.8696 32.8646 24.9015 32.9968 24.963C33.1289 25.0245 33.246 25.1141 33.3399 25.2256L54.9299 50.6656C55.0228 50.7769 55.139 50.8664 55.2703 50.9279C55.4017 50.9893 55.5449 51.0212 55.6899 51.0212C55.8349 51.0212 55.9781 50.9893 56.1094 50.9279C56.2407 50.8664 56.357 50.7769 56.4499 50.6656L62.6299 43.3256C62.7228 43.2122 62.84 43.121 62.9729 43.0588C63.1058 42.9966 63.2512 42.9648 63.3986 42.9657C63.5459 42.9667 63.6916 43.0004 63.825 43.0643C63.9583 43.1283 64.0762 43.2209 64.1699 43.3356L69.1099 49.4356C69.2558 49.6165 69.3337 49.8433 69.33 50.0769C69.3264 50.3105 69.2415 50.5363 69.0899 50.7156L58.1499 63.4756C56.4499 65.4623 54.7199 65.4189 52.9599 63.3456L26.7399 32.5356Z"/>
<path d="M55.5204 66.8356C59.0904 67.1756 67.7104 55.4356 70.1504 52.4456C70.2428 52.3329 70.3588 52.2417 70.4901 52.1785C70.6214 52.1153 70.765 52.0815 70.9108 52.0796C71.0565 52.0777 71.2009 52.1077 71.3339 52.1675C71.4668 52.2272 71.5851 52.3154 71.6804 52.4256L76.7804 58.3156C76.9346 58.4956 77.0211 58.7235 77.0248 58.9593C77.0284 59.1952 76.949 59.424 76.8004 59.6056C72.8604 64.399 68.8471 69.119 64.7604 73.7656C59.7104 79.5056 52.6904 81.1256 47.1604 74.6356C37.7804 63.6223 28.4104 52.589 19.0504 41.5356C18.8974 41.3536 18.8135 41.1235 18.8135 40.8856C18.8135 40.6478 18.8974 40.4177 19.0504 40.2356L24.1004 34.3256C24.1952 34.2157 24.3127 34.1274 24.4447 34.0669C24.5767 34.0064 24.7202 33.9751 24.8654 33.9751C25.0106 33.9751 25.1542 34.0064 25.2862 34.0669C25.4182 34.1274 25.5356 34.2157 25.6304 34.3256L51.4104 64.6556C52.5104 65.949 53.8804 66.6756 55.5204 66.8356Z"/>
<path d="M135.68 42.5157C135.613 41.449 135.597 40.3657 135.63 39.2657C135.677 37.899 136.147 37.7357 137.04 38.7757C141.467 43.909 145.873 49.0557 150.26 54.2157C152.713 57.109 154.09 59.4557 154.39 61.2557C154.87 64.149 153.817 66.7157 151.23 68.9557C151.131 69.042 151.015 69.1077 150.89 69.1489C150.764 69.1901 150.632 69.2061 150.5 69.1959C150.368 69.1856 150.239 69.1495 150.121 69.0894C150.002 69.0293 149.897 68.9465 149.81 68.8457L134.09 50.2857C133.969 50.1443 133.89 49.9721 133.862 49.7884C133.834 49.6047 133.857 49.4168 133.93 49.2457C135.19 46.3057 135.773 44.0624 135.68 42.5157Z"/>
<path d="M13.6204 61.7054C11.607 64.0588 9.60702 66.4254 7.62035 68.8054C7.53478 68.9082 7.42947 68.9927 7.31065 69.0541C7.19184 69.1154 7.06192 69.1523 6.92859 69.1626C6.79527 69.1728 6.66124 69.1563 6.53443 69.1138C6.40763 69.0714 6.29063 69.0039 6.19035 68.9154C3.65035 66.6688 2.62702 64.0788 3.12035 61.1454C3.97035 56.1454 12.8704 47.5854 16.4304 43.3954C16.5249 43.2846 16.6426 43.1957 16.7752 43.1351C16.9077 43.0744 17.0519 43.0435 17.1977 43.0445C17.3434 43.0454 17.4872 43.0782 17.619 43.1406C17.7507 43.2029 17.8672 43.2933 17.9604 43.4054L22.9303 49.3954C23.08 49.5751 23.162 49.8016 23.162 50.0354C23.162 50.2693 23.08 50.4958 22.9303 50.6754C19.8903 54.3354 16.787 58.0121 13.6204 61.7054Z"/>
<path d="M132.99 52.0658L148.92 70.8458C149.016 70.9565 149.069 71.0975 149.071 71.2439C149.073 71.3904 149.023 71.5327 148.93 71.6458L143.43 78.2858C143.372 78.3551 143.299 78.4109 143.217 78.4492C143.135 78.4875 143.045 78.5073 142.955 78.5073C142.864 78.5073 142.775 78.4875 142.693 78.4492C142.611 78.4109 142.538 78.3551 142.48 78.2858L126.54 59.4358C126.445 59.3239 126.394 59.1822 126.394 59.0358C126.394 58.8893 126.445 58.7476 126.54 58.6358L132.04 52.0658C132.098 51.9964 132.171 51.9406 132.253 51.9023C132.335 51.8641 132.424 51.8442 132.515 51.8442C132.605 51.8442 132.695 51.8641 132.777 51.9023C132.859 51.9406 132.932 51.9964 132.99 52.0658Z"/>
<path d="M8.71058 70.6655C13.8606 64.6055 18.8706 58.2055 24.2706 52.4155C24.3678 52.3126 24.4856 52.2312 24.6162 52.1768C24.7467 52.1224 24.8871 52.0962 25.028 52.1C25.1688 52.1037 25.307 52.1374 25.4333 52.1987C25.5596 52.26 25.6711 52.3475 25.7606 52.4555L30.7506 58.3255C30.9038 58.504 30.9879 58.7318 30.9879 58.9682C30.9879 59.2045 30.9038 59.434 30.7506 59.6155L15.2706 77.9555C15.1767 78.067 15.0596 78.1567 14.9275 78.2182C14.7953 78.2797 14.6513 78.3115 14.5056 78.3115C14.3598 78.3115 14.2158 78.2797 14.0837 78.2182C13.9516 78.1567 13.8345 78.067 13.7406 77.9555L8.70058 71.9555C8.54969 71.7739 8.46793 71.5448 8.46976 71.3087C8.47159 71.0726 8.5569 70.8448 8.71058 70.6655Z"/>
</mask>
<path d="M100.891 50.7656C100.983 50.8783 101.099 50.9695 101.23 51.0327C101.362 51.0959 101.505 51.1297 101.651 51.1316C101.797 51.1335 101.941 51.1035 102.074 51.0437C102.207 50.984 102.325 50.8958 102.421 50.7856L110.251 41.6356C110.404 41.4535 110.488 41.2234 110.488 40.9856C110.488 40.7478 110.404 40.5176 110.251 40.3356L102.601 31.2956C102.507 31.1852 102.39 31.0962 102.259 31.0345C102.128 30.9728 101.986 30.9399 101.842 30.938C101.698 30.9361 101.555 30.9653 101.424 31.0235C101.292 31.0818 101.175 31.1677 101.081 31.2756L94.7907 38.4356C94.6945 38.5426 94.5765 38.6279 94.4446 38.6856C94.3128 38.7434 94.1701 38.7723 94.0261 38.7704C93.8822 38.7685 93.7403 38.7359 93.61 38.6747C93.4797 38.6135 93.364 38.5251 93.2707 38.4156L88.3107 32.5856C88.1587 32.409 88.0744 32.1838 88.0726 31.9497C88.0707 31.7156 88.1515 31.4875 88.3007 31.3056C91.5273 27.3589 94.7973 23.4956 98.1107 19.7156C101.921 15.3656 103.551 17.5256 106.401 20.8456C111.167 26.4256 115.927 32.0189 120.681 37.6256C122.447 39.7056 122.324 41.9689 120.311 44.4156C112.064 54.4222 106.867 60.6356 104.721 63.0556C102.767 65.2556 100.781 65.1756 98.7607 62.8156C86.1073 48.0689 73.5073 33.2789 60.9607 18.4456C57.9907 14.9456 54.5207 13.5656 51.2007 17.4256C47.7873 21.3856 44.404 25.3722 41.0507 29.3856C40.9575 29.4977 40.841 29.5881 40.7093 29.6504C40.5775 29.7128 40.4338 29.7456 40.288 29.7465C40.1423 29.7475 39.9981 29.7166 39.8655 29.6559C39.733 29.5953 39.6153 29.5064 39.5207 29.3956L34.5307 23.5056C34.379 23.3298 34.2938 23.1063 34.2902 22.8742C34.2865 22.642 34.3646 22.416 34.5107 22.2356C38.2907 17.5456 46.4107 5.98556 51.7507 3.99556C59.7607 0.995558 63.0607 6.11556 68.4807 12.4056C79.4007 25.0656 90.204 37.8522 100.891 50.7656Z" fill="#EC5D8E"/>
<path d="M103.28 67.1256C103.439 67.1412 103.598 67.1195 103.746 67.0621C103.894 67.0048 104.025 66.9134 104.13 66.7956C109.617 60.5023 115.04 54.1589 120.4 47.7656C123.71 43.8056 125.19 39.8056 121.65 35.6556C116.897 30.0756 112.15 24.4889 107.41 18.8956C103.37 14.1256 100.48 13.7456 96.4204 18.5656C93.3671 22.1923 90.2971 25.8089 87.2104 29.4156C87.1165 29.5254 87 29.6135 86.8688 29.6739C86.7376 29.7344 86.5949 29.7657 86.4504 29.7657C86.306 29.7657 86.1632 29.7344 86.032 29.6739C85.9008 29.6135 85.7843 29.5254 85.6904 29.4156L80.5804 23.4756C80.4241 23.2956 80.3372 23.0658 80.3353 22.8274C80.3335 22.5891 80.4169 22.3579 80.5704 22.1756C84.3838 17.6689 88.2071 13.1823 92.0404 8.71558C97.3704 2.50558 104.66 0.485584 110.68 7.65558C116.554 14.6556 122.47 21.6256 128.43 28.5656C138.82 40.6556 133.08 47.8256 124.39 58.0856C120.724 62.4056 117.047 66.7289 113.36 71.0556C105.07 80.7756 99.3604 81.9056 90.9104 71.9256C79.4304 58.3722 67.9404 44.8223 56.4404 31.2756C56.3456 31.1656 56.2282 31.0773 56.0962 31.0168C55.9641 30.9564 55.8206 30.925 55.6754 30.925C55.5302 30.925 55.3867 30.9564 55.2547 31.0168C55.1227 31.0773 55.0052 31.1656 54.9104 31.2756L48.7504 38.4656C48.6565 38.5754 48.54 38.6635 48.4088 38.7239C48.2776 38.7844 48.1349 38.8157 47.9904 38.8157C47.846 38.8157 47.7032 38.7844 47.572 38.7239C47.4408 38.6635 47.3243 38.5754 47.2304 38.4656L42.1904 32.5756C42.0341 32.3956 41.9472 32.1658 41.9453 31.9274C41.9435 31.6891 42.0269 31.4579 42.1804 31.2756C45.7071 27.1223 49.2371 22.9856 52.7704 18.8656C54.7904 16.5056 56.8604 16.5823 58.9804 19.0956C71.0871 33.4623 83.2371 47.7922 95.4304 62.0856C97.8604 64.9356 99.0704 66.7256 103.28 67.1256Z" fill="#0054A6"/>
<path d="M26.7399 32.5356C26.5868 32.3536 26.5029 32.1234 26.5029 31.8856C26.5029 31.6478 26.5868 31.4176 26.7399 31.2356L31.8099 25.2256C31.9038 25.1141 32.0209 25.0245 32.153 24.963C32.2851 24.9015 32.4291 24.8696 32.5749 24.8696C32.7206 24.8696 32.8646 24.9015 32.9968 24.963C33.1289 25.0245 33.246 25.1141 33.3399 25.2256L54.9299 50.6656C55.0228 50.7769 55.139 50.8664 55.2703 50.9279C55.4017 50.9893 55.5449 51.0212 55.6899 51.0212C55.8349 51.0212 55.9781 50.9893 56.1094 50.9279C56.2407 50.8664 56.357 50.7769 56.4499 50.6656L62.6299 43.3256C62.7228 43.2122 62.84 43.121 62.9729 43.0588C63.1058 42.9966 63.2512 42.9648 63.3986 42.9657C63.5459 42.9667 63.6916 43.0004 63.825 43.0643C63.9583 43.1283 64.0762 43.2209 64.1699 43.3356L69.1099 49.4356C69.2558 49.6165 69.3337 49.8433 69.33 50.0769C69.3264 50.3105 69.2415 50.5363 69.0899 50.7156L58.1499 63.4756C56.4499 65.4623 54.7199 65.4189 52.9599 63.3456L26.7399 32.5356Z" fill="#0054A6"/>
<path d="M55.5204 66.8356C59.0904 67.1756 67.7104 55.4356 70.1504 52.4456C70.2428 52.3329 70.3588 52.2417 70.4901 52.1785C70.6214 52.1153 70.765 52.0815 70.9108 52.0796C71.0565 52.0777 71.2009 52.1077 71.3339 52.1675C71.4668 52.2272 71.5851 52.3154 71.6804 52.4256L76.7804 58.3156C76.9346 58.4956 77.0211 58.7235 77.0248 58.9593C77.0284 59.1952 76.949 59.424 76.8004 59.6056C72.8604 64.399 68.8471 69.119 64.7604 73.7656C59.7104 79.5056 52.6904 81.1256 47.1604 74.6356C37.7804 63.6223 28.4104 52.589 19.0504 41.5356C18.8974 41.3536 18.8135 41.1235 18.8135 40.8856C18.8135 40.6478 18.8974 40.4177 19.0504 40.2356L24.1004 34.3256C24.1952 34.2157 24.3127 34.1274 24.4447 34.0669C24.5767 34.0064 24.7202 33.9751 24.8654 33.9751C25.0106 33.9751 25.1542 34.0064 25.2862 34.0669C25.4182 34.1274 25.5356 34.2157 25.6304 34.3256L51.4104 64.6556C52.5104 65.949 53.8804 66.6756 55.5204 66.8356Z" fill="#EC5D8E"/>
<path d="M135.68 42.5157C135.613 41.449 135.597 40.3657 135.63 39.2657C135.677 37.899 136.147 37.7357 137.04 38.7757C141.467 43.909 145.873 49.0557 150.26 54.2157C152.713 57.109 154.09 59.4557 154.39 61.2557C154.87 64.149 153.817 66.7157 151.23 68.9557C151.131 69.042 151.015 69.1077 150.89 69.1489C150.764 69.1901 150.632 69.2061 150.5 69.1959C150.368 69.1856 150.239 69.1495 150.121 69.0894C150.002 69.0293 149.897 68.9465 149.81 68.8457L134.09 50.2857C133.969 50.1443 133.89 49.9721 133.862 49.7884C133.834 49.6047 133.857 49.4168 133.93 49.2457C135.19 46.3057 135.773 44.0624 135.68 42.5157Z" fill="#0054A6"/>
<path d="M13.6204 61.7054C11.607 64.0588 9.60702 66.4254 7.62035 68.8054C7.53478 68.9082 7.42947 68.9927 7.31065 69.0541C7.19184 69.1154 7.06192 69.1523 6.92859 69.1626C6.79527 69.1728 6.66124 69.1563 6.53443 69.1138C6.40763 69.0714 6.29063 69.0039 6.19035 68.9154C3.65035 66.6688 2.62702 64.0788 3.12035 61.1454C3.97035 56.1454 12.8704 47.5854 16.4304 43.3954C16.5249 43.2846 16.6426 43.1957 16.7752 43.1351C16.9077 43.0744 17.0519 43.0435 17.1977 43.0445C17.3434 43.0454 17.4872 43.0782 17.619 43.1406C17.7507 43.2029 17.8672 43.2933 17.9604 43.4054L22.9303 49.3954C23.08 49.5751 23.162 49.8016 23.162 50.0354C23.162 50.2693 23.08 50.4958 22.9303 50.6754C19.8903 54.3354 16.787 58.0121 13.6204 61.7054Z" fill="#EC5D8E"/>
<path d="M132.99 52.0658L148.92 70.8458C149.016 70.9565 149.069 71.0975 149.071 71.2439C149.073 71.3904 149.023 71.5327 148.93 71.6458L143.43 78.2858C143.372 78.3551 143.299 78.4109 143.217 78.4492C143.135 78.4875 143.045 78.5073 142.955 78.5073C142.864 78.5073 142.775 78.4875 142.693 78.4492C142.611 78.4109 142.538 78.3551 142.48 78.2858L126.54 59.4358C126.445 59.3239 126.394 59.1822 126.394 59.0358C126.394 58.8893 126.445 58.7476 126.54 58.6358L132.04 52.0658C132.098 51.9964 132.171 51.9406 132.253 51.9023C132.335 51.8641 132.424 51.8442 132.515 51.8442C132.605 51.8442 132.695 51.8641 132.777 51.9023C132.859 51.9406 132.932 51.9964 132.99 52.0658Z" fill="#EC5D8E"/>
<path d="M8.71058 70.6655C13.8606 64.6055 18.8706 58.2055 24.2706 52.4155C24.3678 52.3126 24.4856 52.2312 24.6162 52.1768C24.7467 52.1224 24.8871 52.0962 25.028 52.1C25.1688 52.1037 25.307 52.1374 25.4333 52.1987C25.5596 52.26 25.6711 52.3475 25.7606 52.4555L30.7506 58.3255C30.9038 58.504 30.9879 58.7318 30.9879 58.9682C30.9879 59.2045 30.9038 59.434 30.7506 59.6155L15.2706 77.9555C15.1767 78.067 15.0596 78.1567 14.9275 78.2182C14.7953 78.2797 14.6513 78.3115 14.5056 78.3115C14.3598 78.3115 14.2158 78.2797 14.0837 78.2182C13.9516 78.1567 13.8345 78.067 13.7406 77.9555L8.70058 71.9555C8.54969 71.7739 8.46793 71.5448 8.46976 71.3087C8.47159 71.0726 8.5569 70.8448 8.71058 70.6655Z" fill="#0054A6"/>
<path d="M100.891 50.7656C100.983 50.8783 101.099 50.9695 101.23 51.0327C101.362 51.0959 101.505 51.1297 101.651 51.1316C101.797 51.1335 101.941 51.1035 102.074 51.0437C102.207 50.984 102.325 50.8958 102.421 50.7856L110.251 41.6356C110.404 41.4535 110.488 41.2234 110.488 40.9856C110.488 40.7478 110.404 40.5176 110.251 40.3356L102.601 31.2956C102.507 31.1852 102.39 31.0962 102.259 31.0345C102.128 30.9728 101.986 30.9399 101.842 30.938C101.698 30.9361 101.555 30.9653 101.424 31.0235C101.292 31.0818 101.175 31.1677 101.081 31.2756L94.7907 38.4356C94.6945 38.5426 94.5765 38.6279 94.4446 38.6856C94.3128 38.7434 94.1701 38.7723 94.0261 38.7704C93.8822 38.7685 93.7403 38.7359 93.61 38.6747C93.4797 38.6135 93.364 38.5251 93.2707 38.4156L88.3107 32.5856C88.1587 32.409 88.0744 32.1838 88.0726 31.9497C88.0707 31.7156 88.1515 31.4875 88.3007 31.3056C91.5273 27.3589 94.7973 23.4956 98.1107 19.7156C101.921 15.3656 103.551 17.5256 106.401 20.8456C111.167 26.4256 115.927 32.0189 120.681 37.6256C122.447 39.7056 122.324 41.9689 120.311 44.4156C112.064 54.4222 106.867 60.6356 104.721 63.0556C102.767 65.2556 100.781 65.1756 98.7607 62.8156C86.1073 48.0689 73.5073 33.2789 60.9607 18.4456C57.9907 14.9456 54.5207 13.5656 51.2007 17.4256C47.7873 21.3856 44.404 25.3722 41.0507 29.3856C40.9575 29.4977 40.841 29.5881 40.7093 29.6504C40.5775 29.7128 40.4338 29.7456 40.288 29.7465C40.1423 29.7475 39.9981 29.7166 39.8655 29.6559C39.733 29.5953 39.6153 29.5064 39.5207 29.3956L34.5307 23.5056C34.379 23.3298 34.2938 23.1063 34.2902 22.8742C34.2865 22.642 34.3646 22.416 34.5107 22.2356C38.2907 17.5456 46.4107 5.98556 51.7507 3.99556C59.7607 0.995558 63.0607 6.11556 68.4807 12.4056C79.4007 25.0656 90.204 37.8522 100.891 50.7656Z" stroke="white" stroke-width="4.8" stroke-miterlimit="5.75877" stroke-linejoin="round" mask="url(#path-1-outside-1_1007_1932)"/>
<path d="M103.28 67.1256C103.439 67.1412 103.598 67.1195 103.746 67.0621C103.894 67.0048 104.025 66.9134 104.13 66.7956C109.617 60.5023 115.04 54.1589 120.4 47.7656C123.71 43.8056 125.19 39.8056 121.65 35.6556C116.897 30.0756 112.15 24.4889 107.41 18.8956C103.37 14.1256 100.48 13.7456 96.4204 18.5656C93.3671 22.1923 90.2971 25.8089 87.2104 29.4156C87.1165 29.5254 87 29.6135 86.8688 29.6739C86.7376 29.7344 86.5949 29.7657 86.4504 29.7657C86.306 29.7657 86.1632 29.7344 86.032 29.6739C85.9008 29.6135 85.7843 29.5254 85.6904 29.4156L80.5804 23.4756C80.4241 23.2956 80.3372 23.0658 80.3353 22.8274C80.3335 22.5891 80.4169 22.3579 80.5704 22.1756C84.3838 17.6689 88.2071 13.1823 92.0404 8.71558C97.3704 2.50558 104.66 0.485584 110.68 7.65558C116.554 14.6556 122.47 21.6256 128.43 28.5656C138.82 40.6556 133.08 47.8256 124.39 58.0856C120.724 62.4056 117.047 66.7289 113.36 71.0556C105.07 80.7756 99.3604 81.9056 90.9104 71.9256C79.4304 58.3722 67.9404 44.8223 56.4404 31.2756C56.3456 31.1656 56.2282 31.0773 56.0962 31.0168C55.9641 30.9564 55.8206 30.925 55.6754 30.925C55.5302 30.925 55.3867 30.9564 55.2547 31.0168C55.1227 31.0773 55.0052 31.1656 54.9104 31.2756L48.7504 38.4656C48.6565 38.5754 48.54 38.6635 48.4088 38.7239C48.2776 38.7844 48.1349 38.8157 47.9904 38.8157C47.846 38.8157 47.7032 38.7844 47.572 38.7239C47.4408 38.6635 47.3243 38.5754 47.2304 38.4656L42.1904 32.5756C42.0341 32.3956 41.9472 32.1658 41.9453 31.9274C41.9435 31.6891 42.0269 31.4579 42.1804 31.2756C45.7071 27.1223 49.2371 22.9856 52.7704 18.8656C54.7904 16.5056 56.8604 16.5823 58.9804 19.0956C71.0871 33.4623 83.2371 47.7922 95.4304 62.0856C97.8604 64.9356 99.0704 66.7256 103.28 67.1256Z" stroke="white" stroke-width="4.8" stroke-miterlimit="5.75877" stroke-linejoin="round" mask="url(#path-1-outside-1_1007_1932)"/>
<path d="M26.7399 32.5356C26.5868 32.3536 26.5029 32.1234 26.5029 31.8856C26.5029 31.6478 26.5868 31.4176 26.7399 31.2356L31.8099 25.2256C31.9038 25.1141 32.0209 25.0245 32.153 24.963C32.2851 24.9015 32.4291 24.8696 32.5749 24.8696C32.7206 24.8696 32.8646 24.9015 32.9968 24.963C33.1289 25.0245 33.246 25.1141 33.3399 25.2256L54.9299 50.6656C55.0228 50.7769 55.139 50.8664 55.2703 50.9279C55.4017 50.9893 55.5449 51.0212 55.6899 51.0212C55.8349 51.0212 55.9781 50.9893 56.1094 50.9279C56.2407 50.8664 56.357 50.7769 56.4499 50.6656L62.6299 43.3256C62.7228 43.2122 62.84 43.121 62.9729 43.0588C63.1058 42.9966 63.2512 42.9648 63.3986 42.9657C63.5459 42.9667 63.6916 43.0004 63.825 43.0643C63.9583 43.1283 64.0762 43.2209 64.1699 43.3356L69.1099 49.4356C69.2558 49.6165 69.3337 49.8433 69.33 50.0769C69.3264 50.3105 69.2415 50.5363 69.0899 50.7156L58.1499 63.4756C56.4499 65.4623 54.7199 65.4189 52.9599 63.3456L26.7399 32.5356Z" stroke="white" stroke-width="4.8" stroke-miterlimit="5.75877" stroke-linejoin="round" mask="url(#path-1-outside-1_1007_1932)"/>
<path d="M55.5204 66.8356C59.0904 67.1756 67.7104 55.4356 70.1504 52.4456C70.2428 52.3329 70.3588 52.2417 70.4901 52.1785C70.6214 52.1153 70.765 52.0815 70.9108 52.0796C71.0565 52.0777 71.2009 52.1077 71.3339 52.1675C71.4668 52.2272 71.5851 52.3154 71.6804 52.4256L76.7804 58.3156C76.9346 58.4956 77.0211 58.7235 77.0248 58.9593C77.0284 59.1952 76.949 59.424 76.8004 59.6056C72.8604 64.399 68.8471 69.119 64.7604 73.7656C59.7104 79.5056 52.6904 81.1256 47.1604 74.6356C37.7804 63.6223 28.4104 52.589 19.0504 41.5356C18.8974 41.3536 18.8135 41.1235 18.8135 40.8856C18.8135 40.6478 18.8974 40.4177 19.0504 40.2356L24.1004 34.3256C24.1952 34.2157 24.3127 34.1274 24.4447 34.0669C24.5767 34.0064 24.7202 33.9751 24.8654 33.9751C25.0106 33.9751 25.1542 34.0064 25.2862 34.0669C25.4182 34.1274 25.5356 34.2157 25.6304 34.3256L51.4104 64.6556C52.5104 65.949 53.8804 66.6756 55.5204 66.8356Z" stroke="white" stroke-width="4.8" stroke-miterlimit="5.75877" stroke-linejoin="round" mask="url(#path-1-outside-1_1007_1932)"/>
<path d="M135.68 42.5157C135.613 41.449 135.597 40.3657 135.63 39.2657C135.677 37.899 136.147 37.7357 137.04 38.7757C141.467 43.909 145.873 49.0557 150.26 54.2157C152.713 57.109 154.09 59.4557 154.39 61.2557C154.87 64.149 153.817 66.7157 151.23 68.9557C151.131 69.042 151.015 69.1077 150.89 69.1489C150.764 69.1901 150.632 69.2061 150.5 69.1959C150.368 69.1856 150.239 69.1495 150.121 69.0894C150.002 69.0293 149.897 68.9465 149.81 68.8457L134.09 50.2857C133.969 50.1443 133.89 49.9721 133.862 49.7884C133.834 49.6047 133.857 49.4168 133.93 49.2457C135.19 46.3057 135.773 44.0624 135.68 42.5157Z" stroke="white" stroke-width="4.8" stroke-miterlimit="5.75877" stroke-linejoin="round" mask="url(#path-1-outside-1_1007_1932)"/>
<path d="M13.6204 61.7054C11.607 64.0588 9.60702 66.4254 7.62035 68.8054C7.53478 68.9082 7.42947 68.9927 7.31065 69.0541C7.19184 69.1154 7.06192 69.1523 6.92859 69.1626C6.79527 69.1728 6.66124 69.1563 6.53443 69.1138C6.40763 69.0714 6.29063 69.0039 6.19035 68.9154C3.65035 66.6688 2.62702 64.0788 3.12035 61.1454C3.97035 56.1454 12.8704 47.5854 16.4304 43.3954C16.5249 43.2846 16.6426 43.1957 16.7752 43.1351C16.9077 43.0744 17.0519 43.0435 17.1977 43.0445C17.3434 43.0454 17.4872 43.0782 17.619 43.1406C17.7507 43.2029 17.8672 43.2933 17.9604 43.4054L22.9303 49.3954C23.08 49.5751 23.162 49.8016 23.162 50.0354C23.162 50.2693 23.08 50.4958 22.9303 50.6754C19.8903 54.3354 16.787 58.0121 13.6204 61.7054Z" stroke="white" stroke-width="4.8" stroke-miterlimit="5.75877" stroke-linejoin="round" mask="url(#path-1-outside-1_1007_1932)"/>
<path d="M132.99 52.0658L148.92 70.8458C149.016 70.9565 149.069 71.0975 149.071 71.2439C149.073 71.3904 149.023 71.5327 148.93 71.6458L143.43 78.2858C143.372 78.3551 143.299 78.4109 143.217 78.4492C143.135 78.4875 143.045 78.5073 142.955 78.5073C142.864 78.5073 142.775 78.4875 142.693 78.4492C142.611 78.4109 142.538 78.3551 142.48 78.2858L126.54 59.4358C126.445 59.3239 126.394 59.1822 126.394 59.0358C126.394 58.8893 126.445 58.7476 126.54 58.6358L132.04 52.0658C132.098 51.9964 132.171 51.9406 132.253 51.9023C132.335 51.8641 132.424 51.8442 132.515 51.8442C132.605 51.8442 132.695 51.8641 132.777 51.9023C132.859 51.9406 132.932 51.9964 132.99 52.0658Z" stroke="white" stroke-width="4.8" stroke-miterlimit="5.75877" stroke-linejoin="round" mask="url(#path-1-outside-1_1007_1932)"/>
<path d="M8.71058 70.6655C13.8606 64.6055 18.8706 58.2055 24.2706 52.4155C24.3678 52.3126 24.4856 52.2312 24.6162 52.1768C24.7467 52.1224 24.8871 52.0962 25.028 52.1C25.1688 52.1037 25.307 52.1374 25.4333 52.1987C25.5596 52.26 25.6711 52.3475 25.7606 52.4555L30.7506 58.3255C30.9038 58.504 30.9879 58.7318 30.9879 58.9682C30.9879 59.2045 30.9038 59.434 30.7506 59.6155L15.2706 77.9555C15.1767 78.067 15.0596 78.1567 14.9275 78.2182C14.7953 78.2797 14.6513 78.3115 14.5056 78.3115C14.3598 78.3115 14.2158 78.2797 14.0837 78.2182C13.9516 78.1567 13.8345 78.067 13.7406 77.9555L8.70058 71.9555C8.54969 71.7739 8.46793 71.5448 8.46976 71.3087C8.47159 71.0726 8.5569 70.8448 8.71058 70.6655Z" stroke="white" stroke-width="4.8" stroke-miterlimit="5.75877" stroke-linejoin="round" mask="url(#path-1-outside-1_1007_1932)"/>
</svg>
